 http://img440.imageshack.us/img440/3633/ouridiotbrother.jpg


Verenigde Staten
Komedie
95 minuten

geregisseerd door Jesse Peretz
met Paul Rudd, Elizabeth Banks en Zooey Deschanel

Ned (Rudd) ziet het goede in elke situatie en in iedereen, waardoor hij vaak botst met de rest van de wereld – vooral met z’n familie. Nadat hij een tijdje heeft gezeten als straf voor het dealen van marihuana, trekt Ned in bij z’n oudste zus Liz (Mortimer), een hooggespannen moeder van twee. Hij helpt mee in de opvoeding van haar zevenjarige zoon River, maar zijn versie van wat grappig is voor kinderen strookt niet met die van z’n zuster. Nadat hij het leven van Liz op z’n kop heeft gezet, trekt hij in bij de middelste zus Miranda (Banks), een gedreven jounaliste. Hij maakt al snel een potje van haar grote doorbraak en verstoort haar voorzichtig opgebouwde liefdesleven. Hij moet dan maar naar z’n jongste zus Natalie (Deschanel), wier wilde verleden als kind haar geluk dreigt te vernietigen. Overal waar Ned komt laat hij chaos achter, maar uiteindelijk ook een zweem van waarheid en geluk.



Vertaald door het DRT Vertaalteam
Jules71




Screenshots:
 
http://img213.imageshack.us/img213/1944/screenshot1as.jpg
 
http://img27.imageshack.us/img27/2130/screenshot2nx.jpg
 
http://img834.imageshack.us/img834/8964/screenshot3wr.jpg
 
http://img191.imageshack.us/img191/8694/screenshot4km.jpg




INFO;


Format                                   : AVI
Format/Info                              : Audio Video Interleave
File size                                : 700 MiB
Duration                                 : 1h 29mn
Overall bit rate mode                    : Variable
Overall bit rate                         : 1 089 Kbps
Writing application                      : VirtualDubMod 1.5.10.2 (build 2542/release)
Writing library                          : VirtualDubMod build 2542/release

Video
ID                                       : 0
Format                                   : MPEG-4 Visual
Format profile                           : Advanced Simple@L5
Format settings, BVOP                    : 1
Format settings, QPel                    : No
Format settings, GMC                     : No warppoints
Format settings, Matrix                  : Default (H.263)
Muxing mode                              : Packed bitstream
Codec ID                                 : XVID
Codec ID/Hint                            : XviD
Duration                                 : 1h 29mn
Bit rate                                 : 920 Kbps
Width                                    : 624 pixels
Height                                   : 352 pixels
Display aspect ratio                     : 16:9
Frame rate                               : 23.976 fps
Color space                              : YUV
Chroma subsampling                       : 4:2:0
Bit depth                                : 8 bits
Scan type                                : Progressive
Compression mode                         : Lossy
Bits/(Pixel*Frame)                       : 0.175
Stream size                              : 591 MiB (84%)
Writing library                          : XviD 64

Audio
ID                                       : 1
Format                                   : MPEG Audio
Format version                           : Version 1
Format profile                           : Layer 3
Mode                                     : Joint stereo
Mode extension                           : MS Stereo
Codec ID                                 : 55
Codec ID/Hint                            : MP3
Duration                                 : 1h 29mn
Bit rate mode                            : Variable
Bit rate                                 : 157 Kbps
Minimum bit rate                         : 128 Kbps
Channel(s)                               : 2 channels
Sampling rate                            : 48.0 KHz
Compression mode                         : Lossy
Stream size                              : 101 MiB (14%)



 
http://www.imdb.com/title/tt1637706/ 
http://www.moviemeter.nl/film/72426




Deze film wordt u aangeboden door het DutchReleaseTeam.
Voor de reviews van de nieuwste films, muziek, series, games etc
ga dan eens naar http://www.hetmultimediacafe.be

DutchReleaseteam = Hardcoded Dutch Subs